<svg width="20" height="20" viewBox="0 0 20 20" fill="none" xmlns="http://www.w3.org/2000/svg">
<g opacity="0.7" clip-path="url(#clip0_1_6)">
<path d="M6.798 9.64645L7.14482 9.99327L6.80473 10.3467L1.13807 16.2356L1.12318 16.251L1.10703 16.2652C0.459869 16.8314 0.423641 17.8276 1.13133 18.5353L1.57578 18.9798L1.58755 18.9916L1.59851 19.0041C2.16478 19.6512 3.16098 19.6875 3.86867 18.9798L9.64645 13.202L9.99665 12.8518L10.3502 13.1987L16.2391 18.9764L16.2526 18.9898L16.2652 19.0041C16.8265 19.6456 17.8103 19.6868 18.5167 18.9982L18.9429 18.4654L18.9706 18.4307L19.0041 18.4015C19.6512 17.8352 19.6875 16.839 18.9798 16.1313L13.202 10.3536L12.8518 10.0034L13.1987 9.64983L18.9764 3.76094L18.9898 3.74736L19.0041 3.73482C19.6512 3.16856 19.6875 2.17236 18.9798 1.46466L18.5353 1.02022C17.8417 0.326593 16.825 0.326593 16.1313 1.02022L10.3536 6.798L10.0067 7.14482L9.65331 6.80473L3.76442 1.13806L3.74895 1.12318L3.73482 1.10703C3.16856 0.459869 2.17236 0.42364 1.46466 1.13133L1.02022 1.57578L1.00845 1.58755L0.995918 1.59851C0.348757 2.16478 0.312529 3.16098 1.02022 3.86867L6.798 9.64645Z" fill="white" stroke="black"/>
</g>
<defs>
<clipPath id="clip0_1_6">
<rect width="20" height="20" fill="white" transform="matrix(-1 0 0 1 20 0)"/>
</clipPath>
</defs>
</svg>
