<svg xmlns="http://www.w3.org/2000/svg">
    <symbol id="phone" viewBox="0 0 14 15">
        <path d="M13.7455 13.0923C13.4909 13.5935 12.9818 13.8441 12.4727 14.0947C11.8364 14.4706 11.3273 14.5959 10.6909 14.5959C9.8 14.5959 8.90909 14.22 8.14545 13.9694C7.50909 13.7188 7 13.4682 6.36364 13.2176C4.58182 12.09 2.54545 10.0853 1.52727 8.45643C1.14545 7.82996 0.890909 7.32878 0.636364 6.70231C0.381818 5.82525 0 5.07349 0 4.07113C0 3.44466 0.127273 2.81819 0.509091 2.19172C0.763636 1.69054 1.01818 1.18936 1.52727 0.938771C1.90909 0.938771 2.54545 0.813477 2.92727 0.813477C3.05455 0.813477 3.05455 0.813477 3.18182 0.813477C3.43636 0.938771 3.56364 1.31465 3.69091 1.56524C3.94545 2.19172 4.32727 2.69289 4.58182 3.31936C4.83636 3.56995 5.09091 3.82054 5.09091 4.07113C5.09091 4.6976 3.30909 5.57466 3.30909 6.07584C3.30909 6.32643 3.56364 6.70231 3.69091 6.9529C4.70909 8.70702 5.98182 9.95997 7.76364 10.9623C8.01818 11.0876 8.4 11.3382 8.65455 11.3382C9.16364 11.3382 10.0545 9.58408 10.6909 9.58408C10.9455 9.58408 11.2 9.83467 11.4545 10.0853C11.9636 10.4611 12.6 10.7117 13.1091 11.0876C13.3636 11.2129 13.7455 11.3382 13.8727 11.5888C13.8727 11.7141 13.8727 11.7141 13.8727 11.8394C14 12.09 13.8727 12.7164 13.7455 13.0923Z"/>
    </symbol>
    <symbol id="vk">
        <path d="M15 0C6.71779 0 0 6.71779 0 15C0 23.2822 6.71779 30 15 30C23.2822 30 30 23.2822 30 15C30 6.71779 23.2822 0 15 0ZM22.6074 16.6258C23.3129 17.3006 24.0491 17.9448 24.6626 18.7117C24.9387 19.0491 25.2147 19.3865 25.3988 19.7853C25.6748 20.3374 25.4294 20.9509 24.9387 20.9816H21.8712C21.0736 21.0429 20.4601 20.7362 19.908 20.184C19.4785 19.7546 19.0798 19.2945 18.681 18.8344C18.5276 18.6503 18.3436 18.4663 18.1288 18.3436C17.6994 18.0675 17.3313 18.1595 17.1166 18.589C16.8712 19.0491 16.8098 19.5399 16.7791 20.0307C16.7485 20.7669 16.5337 20.9509 15.7975 20.9816C14.2331 21.0429 12.7607 20.8282 11.411 20.0307C10.2147 19.3252 9.2638 18.3742 8.46626 17.2699C6.87117 15.1227 5.67485 12.7607 4.57055 10.3374C4.32515 9.78528 4.5092 9.5092 5.1227 9.47853C6.13497 9.44785 7.11656 9.44785 8.12883 9.47853C8.52761 9.47853 8.80368 9.72393 8.95706 10.092C9.5092 11.411 10.1534 12.6994 10.9816 13.865C11.1963 14.1718 11.4417 14.4785 11.7485 14.7239C12.1166 14.9693 12.362 14.8773 12.546 14.4785C12.638 14.2331 12.6994 13.9571 12.7301 13.681C12.8221 12.7607 12.8221 11.8405 12.6687 10.9202C12.5767 10.3067 12.2699 9.93865 11.6871 9.81595C11.3804 9.7546 11.4417 9.66258 11.5644 9.47853C11.8098 9.20245 12.0552 9.0184 12.5153 9.0184H15.9816C16.5337 9.1411 16.6564 9.35583 16.7178 9.90797V13.773C16.7178 13.9877 16.8098 14.6319 17.2086 14.7546C17.5153 14.8466 17.7301 14.6012 17.9141 14.4172C18.7423 13.5276 19.3252 12.4847 19.8773 11.411C20.1227 10.9202 20.3067 10.4294 20.5215 9.93865C20.6748 9.57055 20.8896 9.3865 21.319 9.3865H24.6626C24.7546 9.3865 24.8466 9.3865 24.9693 9.41718C25.5215 9.5092 25.6748 9.7546 25.5215 10.3067C25.2454 11.1656 24.7239 11.9018 24.2025 12.6074C23.6503 13.3742 23.0368 14.1104 22.4847 14.908C21.9325 15.6442 21.9632 16.0123 22.6074 16.6258Z" 
        fill="#B3B3B3"/>
    </symbol>
    <symbol id="fb">
        <path d="M17.4199 29.8066C17.2969 29.8242 17.168 29.8477 17.0449 29.8652C17.168 29.8418 17.291 29.8242 17.4199 29.8066Z" fill="black"/>
        <path d="M17.7188 29.7539C17.6602 29.7656 17.6016 29.7773 17.5371 29.7832C17.6016 29.7773 17.6602 29.7656 17.7188 29.7539Z" fill="black"/>
        <path d="M16.7051 29.9004C16.5586 29.918 16.4121 29.9297 16.2656 29.9414C16.4121 29.9355 16.5586 29.918 16.7051 29.9004Z" fill="black"/>
        <path d="M16.998 29.8652C16.9277 29.877 16.8574 29.8828 16.7871 29.8887C16.8516 29.8828 16.9277 29.877 16.998 29.8652Z" fill="black"/>
        <path d="M18.1289 29.6719C18.0762 29.6836 18.0234 29.6953 17.9707 29.707C18.0234 29.6953 18.0762 29.6836 18.1289 29.6719Z" fill="black"/>
        <path d="M19.1426 29.4199C19.1016 29.4316 19.0547 29.4434 19.0137 29.4551C19.0547 29.4434 19.0957 29.4316 19.1426 29.4199Z" fill="black"/>
        <path d="M18.832 29.502C18.7852 29.5137 18.7383 29.5254 18.6914 29.5371C18.7441 29.5313 18.7852 29.5195 18.832 29.502Z" fill="black"/>
        <path d="M18.4336 29.6074C18.3867 29.6191 18.334 29.6309 18.2871 29.6426C18.334 29.625 18.3867 29.6133 18.4336 29.6074Z" fill="black"/>
        <path d="M16.2598 29.9473C16.1836 29.9531 16.1016 29.959 16.0254 29.9648C16.1016 29.959 16.1836 29.9531 16.2598 29.9473Z" fill="black"/>
        <path d="M30 15C30 6.71484 23.2852 0 15 0C6.71484 0 0 6.71484 0 15C0 23.2852 6.71484 30 15 30C15.0879 30 15.1758 30 15.2637 29.9941V18.3223H12.041V14.5664H15.2637V11.8008C15.2637 8.5957 17.2207 6.84961 20.0801 6.84961C21.4512 6.84961 22.6289 6.94922 22.9688 6.99609V10.3477H21C19.4473 10.3477 19.1426 11.0859 19.1426 12.1699V14.5605H22.8633L22.377 18.3164H19.1426V29.4199C25.4121 27.6211 30 21.8496 30 15Z" fill="black"/>
        <path d="M15.9902 29.9648C15.832 29.9766 15.6797 29.9824 15.5215 29.9883C15.6797 29.9824 15.832 29.9766 15.9902 29.9648Z" fill="black"/>
        <path d="M15.5156 29.9883C15.4336 29.9883 15.3516 29.9941 15.2695 29.9941C15.3457 29.9941 15.4277 29.9941 15.5156 29.9883Z" fill="black"/>
    </symbol>
    <symbol id="in">
        <path d="M17.8711 15C17.8711 16.5879 16.5879 17.8711 15 17.8711C13.4121 17.8711 12.1289 16.5879 12.1289 15C12.1289 13.4121 13.4121 12.1289 15 12.1289C16.5879 12.1289 17.8711 13.4121 17.8711 15Z" fill="#B3B3B3"/>
        <path d="M21.7148 9.91992C21.5742 9.54492 21.3574 9.20508 21.0703 8.92969C20.7949 8.64258 20.4551 8.42578 20.0801 8.28516C19.7754 8.16797 19.3184 8.02734 18.4805 7.98633C17.5723 7.94531 17.2969 7.93359 15 7.93359C12.6973 7.93359 12.4277 7.93945 11.5195 7.98633C10.6816 8.02734 10.2246 8.16797 9.91992 8.28516C9.54492 8.42578 9.20508 8.64258 8.92969 8.92969C8.64258 9.20508 8.42578 9.54492 8.28516 9.91992C8.16797 10.2246 8.02734 10.6816 7.98633 11.5195C7.94531 12.4277 7.93359 12.6973 7.93359 15C7.93359 17.2969 7.94531 17.5723 7.98633 18.4805C8.02734 19.3184 8.16211 19.7754 8.28516 20.0801C8.42578 20.4551 8.64258 20.7949 8.92969 21.0703C9.20508 21.3574 9.54492 21.5742 9.91992 21.7148C10.2246 21.832 10.6816 21.9727 11.5195 22.0137C12.4277 22.0547 12.6973 22.0664 15 22.0664C17.3027 22.0664 17.5723 22.0605 18.4805 22.0137C19.3184 21.9727 19.7754 21.8379 20.0801 21.7148C20.8301 21.4277 21.4277 20.8301 21.7148 20.0801C21.832 19.7754 21.9727 19.3184 22.0137 18.4805C22.0547 17.5723 22.0664 17.2969 22.0664 15C22.0664 12.6973 22.0605 12.4277 22.0137 11.5195C21.9727 10.6816 21.832 10.2246 21.7148 9.91992ZM15 19.4238C12.5566 19.4238 10.5762 17.4434 10.5762 15C10.5762 12.5566 12.5566 10.5762 15 10.5762C17.4434 10.5762 19.4238 12.5566 19.4238 15C19.4238 17.4434 17.4434 19.4238 15 19.4238ZM19.5996 11.4375C19.0312 11.4375 18.5684 10.9746 18.5684 10.4063C18.5684 9.83789 19.0312 9.375 19.5996 9.375C20.168 9.375 20.6309 9.83789 20.6309 10.4063C20.6309 10.9746 20.168 11.4375 19.5996 11.4375Z" fill="#B3B3B3"/>
        <path d="M15 0C6.71484 0 0 6.71484 0 15C0 23.2852 6.71484 30 15 30C23.2852 30 30 23.2852 30 15C30 6.71484 23.2852 0 15 0ZM23.5605 18.5508C23.5195 19.4648 23.373 20.0918 23.1621 20.6426C22.7168 21.7969 21.8027 22.7168 20.6426 23.1621C20.0977 23.373 19.4707 23.5195 18.5508 23.5605C17.6309 23.6016 17.3379 23.6133 15 23.6133C12.6621 23.6133 12.3691 23.6016 11.4492 23.5605C10.5352 23.5195 9.9082 23.373 9.35742 23.1621C8.7832 22.9453 8.26172 22.6055 7.83398 22.166C7.39453 21.7383 7.05469 21.2168 6.83789 20.6426C6.62695 20.0977 6.48047 19.4707 6.43945 18.5508C6.39844 17.6309 6.38672 17.3379 6.38672 15C6.38672 12.6621 6.39844 12.3691 6.43945 11.4492C6.48047 10.5352 6.62695 9.9082 6.83789 9.35742C7.05469 8.7832 7.39453 8.26172 7.83398 7.83398C8.26172 7.39453 8.7832 7.05469 9.35742 6.83789C9.9082 6.62695 10.5293 6.48047 11.4492 6.43945C12.3691 6.39844 12.6621 6.38672 15 6.38672C17.3379 6.38672 17.6309 6.39844 18.5508 6.43945C19.4648 6.48047 20.0918 6.62695 20.6426 6.83789C21.2168 7.05469 21.7383 7.39453 22.166 7.83398C22.6055 8.26172 22.9453 8.7832 23.1621 9.35742C23.373 9.9082 23.5195 10.5293 23.5605 11.4492C23.6016 12.3691 23.6133 12.6621 23.6133 15C23.6133 17.3379 23.6016 17.6309 23.5605 18.5508Z" fill="#B3B3B3"/>
    </symbol>
    <symbol id="tg">
        <path d="M15 30C23.2852 30 30 23.2852 30 15C30 6.71484 23.2852 0 15 0C6.71484 0 0 6.71484 0 15C0 23.2852 6.71484 30 15 30ZM6.86133 14.6777L21.3281 9.09961C22.002 8.85938 22.5879 9.26367 22.3652 10.2773L19.9043 21.8789C19.7227 22.6992 19.2305 22.9043 18.5508 22.5117L14.8008 19.7461L12.9902 21.4863C12.791 21.6855 12.6211 21.8555 12.2344 21.8555L12.498 18.041L19.4531 11.7656C19.7578 11.502 19.3828 11.3496 18.9844 11.6133L10.3945 17.0215L6.69141 15.8672C5.88867 15.6094 5.87109 15.0645 6.86133 14.6777Z" fill="#B3B3B3"/>
    </symbol>
    <symbol id="cross">
        <path d="M6.798 9.64645L7.14482 9.99327L6.80473 10.3467L1.13807 16.2356L1.12318 16.251L1.10703 16.2652C0.459869 16.8314 0.423641 17.8276 1.13133 18.5353L1.57578 18.9798L1.58755 18.9916L1.59851 19.0041C2.16478 19.6512 3.16098 19.6875 3.86867 18.9798L9.64645 13.202L9.99665 12.8518L10.3502 13.1987L16.2391 18.9764L16.2526 18.9898L16.2652 19.0041C16.8265 19.6456 17.8103 19.6868 18.5167 18.9982L18.9429 18.4654L18.9706 18.4307L19.0041 18.4015C19.6512 17.8352 19.6875 16.839 18.9798 16.1313L13.202 10.3536L12.8518 10.0034L13.1987 9.64983L18.9764 3.76094L18.9898 3.74736L19.0041 3.73482C19.6512 3.16856 19.6875 2.17236 18.9798 1.46466L18.5353 1.02022C17.8417 0.326593 16.825 0.326593 16.1313 1.02022L10.3536 6.798L10.0067 7.14482L9.65331 6.80473L3.76442 1.13806L3.74895 1.12318L3.73482 1.10703C3.16856 0.459869 2.17236 0.42364 1.46466 1.13133L1.02022 1.57578L1.00845 1.58755L0.995918 1.59851C0.348757 2.16478 0.312529 3.16098 1.02022 3.86867L6.798 9.64645Z" fill="white" stroke="black"/>
    </symbol>
    <symbol id="left">
        <path d="M14 28L1.91422 15.9142C1.13317 15.1332 1.13317 13.8668 1.91421 13.0858L14 1">
    </symbol>
    <symbol id="gear">
        <g clip-path="url(#clip0_24_1166)">
        <path d="M21 10.1111C14.9956 10.1111 10.1111 14.9955 10.1111 21C10.1111 27.0044 14.9956 31.8889 21 31.8889C27.0044 31.8889 31.8889 27.0044 31.8889 21C31.8889 14.9955 27.0044 10.1111 21 10.1111ZM21 30.3333C15.8534 30.3333 11.6667 26.1465 11.6667 21C11.6667 15.8534 15.8534 11.6666 21 11.6666C26.1466 11.6666 30.3333 15.8534 30.3333 21C30.3333 26.1465 26.1466 30.3333 21 30.3333Z" fill="white"/>
        <path d="M39.8378 16.3333H38.2682C37.8677 14.8462 37.2789 13.4229 36.5104 12.089L37.6196 10.9799C38.0279 10.5716 38.2527 10.0279 38.2527 9.45078C38.2527 8.87289 38.0279 8.33 37.6196 7.92089L34.0783 4.37967C33.2617 3.56378 31.8376 3.56222 31.0193 4.37967L29.9102 5.48878C28.5756 4.72111 27.153 4.13233 25.6667 3.73178V2.16222C25.6667 0.969889 24.6968 0 23.5044 0H18.4956C17.3032 0 16.3333 0.969889 16.3333 2.16222V3.73178C14.847 4.13233 13.4244 4.72111 12.089 5.48956L10.9799 4.38044C10.1624 3.56222 8.73755 3.56378 7.92089 4.38044L4.37967 7.92167C3.97133 8.33 3.74656 8.87367 3.74656 9.45156C3.74656 10.0287 3.97133 10.5716 4.37967 10.9807L5.48878 12.0898C4.72111 13.4229 4.13156 14.8462 3.73178 16.3333H2.16222C0.969889 16.3333 0 17.3032 0 18.4956V23.5037C0 24.6968 0.969889 25.6667 2.16222 25.6667H3.73178C4.13233 27.153 4.72111 28.5756 5.48956 29.911L4.38044 31.0201C3.97211 31.4284 3.74733 31.9721 3.74733 32.5492C3.74733 33.1271 3.97211 33.67 4.38044 34.0791L7.92167 37.6203C8.73833 38.4378 10.1632 38.4386 10.9807 37.6203L12.0898 36.5112C13.4252 37.2789 14.8478 37.8684 16.3341 38.269V39.8386C16.3341 41.0309 17.304 42.0008 18.4963 42.0008H23.5044C24.6968 42.0008 25.6667 41.0309 25.6667 39.8386V38.269C27.153 37.8684 28.5756 37.2797 29.911 36.5112L31.0201 37.6203C31.8383 38.4386 33.2617 38.437 34.0791 37.6203L37.6203 34.0791C38.0287 33.6708 38.2534 33.1271 38.2534 32.5492C38.2534 31.9721 38.0287 31.4292 37.6203 31.0201L36.5112 29.911C37.2789 28.5756 37.8684 27.153 38.269 25.6667H39.8386C41.0309 25.6667 42.0008 24.6968 42.0008 23.5044V18.4956C42 17.3032 41.0301 16.3333 39.8378 16.3333ZM40.4444 23.5044C40.4444 23.8389 40.1722 24.1111 39.8378 24.1111H37.044L36.904 24.7123C36.4988 26.4522 35.8159 28.1034 34.8717 29.6209L34.545 30.1451L36.5198 32.1199C36.757 32.3571 36.757 32.7421 36.5198 32.9786L32.9786 36.5198C32.7421 36.7562 32.3571 36.7578 32.1199 36.5198L30.1451 34.545L29.6209 34.8717C28.1042 35.8159 26.453 36.4996 24.7123 36.904L24.1111 37.044V39.8378C24.1111 40.1722 23.8389 40.4444 23.5044 40.4444H18.4956C18.1611 40.4444 17.8889 40.1722 17.8889 39.8378V37.044L17.2877 36.904C15.5478 36.4988 13.8966 35.8159 12.3791 34.8717L11.8549 34.545L9.88011 36.5198C9.64211 36.7578 9.25711 36.7562 9.02144 36.5198L5.48022 32.9786C5.243 32.7413 5.243 32.3563 5.48022 32.1199L7.455 30.1451L7.12833 29.6209C6.18411 28.1042 5.50044 26.453 5.096 24.7123L4.956 24.1111H2.16222C1.82778 24.1111 1.55556 23.8389 1.55556 23.5044V18.4956C1.55556 18.1611 1.82778 17.8889 2.16222 17.8889H4.956L5.096 17.2877C5.50122 15.547 6.18411 13.8958 7.12833 12.3791L7.455 11.8549L5.48022 9.88011C5.243 9.64289 5.243 9.25789 5.48022 9.02144L9.02144 5.48022C9.25789 5.24378 9.64289 5.24222 9.88011 5.48022L11.8549 7.455L12.3791 7.12833C13.8958 6.18411 15.547 5.50044 17.2877 5.096L17.8889 4.956V2.16222C17.8889 1.82778 18.1611 1.55556 18.4956 1.55556H23.5037C23.8389 1.55556 24.1111 1.82778 24.1111 2.16222V4.956L24.7123 5.096C26.4522 5.50122 28.1034 6.18411 29.6209 7.12833L30.1451 7.455L32.1199 5.48022C32.3579 5.24222 32.7429 5.24378 32.9786 5.48022L36.5198 9.02144C36.757 9.25867 36.757 9.64367 36.5198 9.88011L34.545 11.8549L34.8717 12.3791C35.8159 13.895 36.4996 15.5462 36.904 17.2877L37.044 17.8889H39.8378C40.1722 17.8889 40.4444 18.1611 40.4444 18.4956V23.5044Z" fill="white"/>
        <path d="M21 13.2222C16.7113 13.2222 13.2222 16.7113 13.2222 20.9999C13.2222 25.2886 16.7113 28.7777 21 28.7777C25.2887 28.7777 28.7778 25.2886 28.7778 20.9999C28.7778 16.7113 25.2887 13.2222 21 13.2222ZM21 27.2222C17.5692 27.2222 14.7778 24.4307 14.7778 20.9999C14.7778 17.5692 17.5692 14.7777 21 14.7777C24.4308 14.7777 27.2222 17.5692 27.2222 20.9999C27.2222 24.4307 24.4308 27.2222 21 27.2222Z" fill="white"/>
        </g>    
    </symbol>
    <symbol id="bluetooth" width="24" height="24" viewBox="0 0 24 24" fill="none">
        <g clip-path="url(#clip0_53747_37)">
        <path d="M18.2054 17.5212L13.1636 12L18.2054 6.47941C18.3637 6.30555 18.4445 6.0739 18.4276 5.83901C18.4107 5.60388 18.2984 5.38591 18.1163 5.23643L11.9874 0.195911C11.7305 -0.0154485 11.3753 -0.0598392 11.0746 0.0825203C10.7739 0.22427 10.5823 0.526708 10.5823 0.859239V9.1736L7.06391 5.32043C6.74426 4.97018 6.20042 4.94552 5.85017 5.26544C5.49992 5.58537 5.47526 6.12865 5.79518 6.47918L10.5823 11.7217V12.2784L5.79523 17.5212C5.47503 17.8711 5.49968 18.4147 5.85022 18.7349C6.20075 19.0551 6.74408 19.0304 7.06395 18.6796L10.5821 14.827V23.1408C10.5821 23.473 10.774 23.7757 11.0744 23.9178C11.1913 23.9728 11.3167 24 11.4413 24C11.6369 24 11.8305 23.9336 11.9874 23.8047L18.1163 18.7641C18.2984 18.6143 18.4107 18.3964 18.4276 18.1615C18.4445 17.9267 18.3643 17.695 18.2054 17.5212ZM12.3007 2.67837L16.326 5.98854L12.3007 10.3968V2.67837ZM12.3007 21.3216V13.6035L16.326 18.0115L12.3007 21.3216Z" fill="black"/>
        </g>
        <defs>
        <clipPath id="clip0_53747_37">
        <rect width="24" height="24" fill="white"/>
        </clipPath>
    </symbol>
</svg>